<svg width="24" height="24" viewBox="0 0 24 24" fill="none" xmlns="http://www.w3.org/2000/svg">
<g clip-path="url(#clip0_69_2)">
<path opacity="0.5" d="M9.62013 2.28736C7.69915 2.75808 5.96089 3.78786 4.62517 5.24649C3.28945 6.70512 2.41626 8.52708 2.11602 10.482C1.81578 12.4369 2.10197 14.4369 2.93841 16.2291C3.77485 18.0214 5.12397 19.5253 6.81515 20.5508C8.50634 21.5763 10.4636 22.0773 12.4395 21.9904C14.4155 21.9034 16.3212 21.2326 17.9158 20.0626C19.5104 18.8925 20.7223 17.2759 21.3982 15.4172C22.074 13.5584 22.1835 11.541 21.7128 9.62002C21.4002 8.34453 20.8395 7.1431 20.0627 6.08431C19.2858 5.02552 18.308 4.13012 17.1851 3.44922C16.0622 2.76832 14.8162 2.31526 13.5182 2.11591C12.2202 1.91655 10.8956 1.97481 9.62013 2.28736V2.28736ZM13.9041 19.7701C12.3673 20.1467 10.7534 20.0591 9.26639 19.5184C7.77939 18.9778 6.48611 18.0083 5.5501 16.7326C4.61408 15.4569 4.07738 13.9323 4.00785 12.3516C3.93832 10.7708 4.3391 9.20499 5.15949 7.85204C5.97988 6.49909 7.18305 5.41979 8.61684 4.75064C10.0506 4.08149 11.6506 3.85254 13.2146 4.09273C14.7785 4.33292 16.236 5.03147 17.4029 6.10005C18.5698 7.16863 19.3937 8.55923 19.7702 10.096C20.2752 12.1568 19.9409 14.3337 18.8408 16.148C17.7406 17.9622 15.9649 19.2652 13.9041 19.7701V19.7701Z" fill="#2169F5"/>
<path d="M19.7701 10.096L21.7126 9.62001C21.4001 8.34453 20.8394 7.14309 20.0625 6.0843C19.2857 5.02552 18.3079 4.13011 17.185 3.44921C16.0621 2.76831 14.816 2.31525 13.518 2.1159C12.22 1.91655 10.8955 1.97481 9.62 2.28735L10.096 4.22988C12.1568 3.72491 14.3337 4.05926 16.148 5.15937C17.9622 6.25948 19.2651 8.03524 19.7701 10.096Z" fill="#2169F5"/>
</g>
<defs>
<clipPath id="clip0_69_2">
<rect width="24" height="24" fill="white"/>
</clipPath>
</defs>
</svg>
