<svg width="16" height="16" viewBox="0 0 16 16" fill="none" xmlns="http://www.w3.org/2000/svg">
<circle cx="8" cy="8" r="7" fill="white"/>
<path d="M8.00001 5.00001H13.9551M5.66668 14.2469L9.88131 10.3333M2.00001 5.09058L5.62504 9.85068M8.00001 5.00001C9.65688 5.00001 11 6.34314 11 8.00001C11 9.65688 9.65688 11 8.00001 11C6.34314 11 5.00001 9.65688 5.00001 8.00001C5.00001 6.34314 6.34314 5.00001 8.00001 5.00001ZM8.00001 14.6667C11.6819 14.6667 14.6667 11.6819 14.6667 8.00001C14.6667 4.31811 11.6819 1.33334 8.00001 1.33334C4.31811 1.33334 1.33334 4.31811 1.33334 8.00001C1.33334 11.6819 4.31811 14.6667 8.00001 14.6667Z" stroke="#738391" stroke-width="0.5" stroke-linecap="round" stroke-linejoin="round"/>
</svg>
