<svg width="16" height="16" viewBox="0 0 16 16" fill="none" xmlns="http://www.w3.org/2000/svg">
<path d="M6.79995 1.59998C6.55169 1.59985 6.3095 1.67672 6.10676 1.82C5.90402 1.96328 5.7507 2.16591 5.66795 2.39998H4.39995C4.08169 2.39998 3.77647 2.5264 3.55142 2.75145C3.32638 2.97649 3.19995 3.28172 3.19995 3.59998V13.2C3.19995 13.5182 3.32638 13.8235 3.55142 14.0485C3.77647 14.2735 4.08169 14.4 4.39995 14.4H11.6C11.9182 14.4 12.2234 14.2735 12.4485 14.0485C12.6735 13.8235 12.8 13.5182 12.8 13.2V3.59998C12.8 3.28172 12.6735 2.97649 12.4485 2.75145C12.2234 2.5264 11.9182 2.39998 11.6 2.39998H10.332C10.2492 2.16591 10.0959 1.96328 9.89314 1.82C9.6904 1.67672 9.44821 1.59985 9.19995 1.59998H6.79995ZM6.39995 2.79998C6.39995 2.69389 6.44209 2.59215 6.51711 2.51713C6.59212 2.44212 6.69386 2.39998 6.79995 2.39998H9.19995C9.30604 2.39998 9.40778 2.44212 9.48279 2.51713C9.55781 2.59215 9.59995 2.69389 9.59995 2.79998C9.59995 2.90606 9.55781 3.0078 9.48279 3.08282C9.40778 3.15783 9.30604 3.19998 9.19995 3.19998H6.79995C6.69386 3.19998 6.59212 3.15783 6.51711 3.08282C6.44209 3.0078 6.39995 2.90606 6.39995 2.79998ZM10.2832 7.88318L7.48315 10.6832C7.44599 10.7204 7.40185 10.75 7.35326 10.7701C7.30466 10.7903 7.25256 10.8007 7.19995 10.8007C7.14734 10.8007 7.09524 10.7903 7.04664 10.7701C6.99805 10.75 6.95391 10.7204 6.91675 10.6832L5.71675 9.48318C5.67956 9.44599 5.65006 9.40183 5.62993 9.35324C5.60981 9.30465 5.59945 9.25257 5.59945 9.19998C5.59945 9.14738 5.60981 9.0953 5.62993 9.04671C5.65006 8.99812 5.67956 8.95397 5.71675 8.91678C5.79186 8.84167 5.89373 8.79947 5.99995 8.79947C6.05255 8.79947 6.10463 8.80983 6.15322 8.82996C6.20181 8.85008 6.24596 8.87959 6.28315 8.91678L7.19995 9.83438L9.71675 7.31678C9.79186 7.24167 9.89373 7.19947 9.99995 7.19947C10.1062 7.19947 10.208 7.24167 10.2832 7.31678C10.3583 7.39188 10.4005 7.49375 10.4005 7.59998C10.4005 7.7062 10.3583 7.80807 10.2832 7.88318Z" fill="white"/>
</svg>
