<svg width="16" height="16" viewBox="0 0 16 16" fill="none" xmlns="http://www.w3.org/2000/svg">
<path d="M6.80001 1.59998C6.55175 1.59985 6.30956 1.67672 6.10682 1.82C5.90408 1.96328 5.75077 2.16591 5.66801 2.39998H4.40001C4.08175 2.39998 3.77653 2.5264 3.55148 2.75145C3.32644 2.97649 3.20001 3.28172 3.20001 3.59998V13.2C3.20001 13.5182 3.32644 13.8235 3.55148 14.0485C3.77653 14.2735 4.08175 14.4 4.40001 14.4H11.6C11.9183 14.4 12.2235 14.2735 12.4485 14.0485C12.6736 13.8235 12.8 13.5182 12.8 13.2V3.59998C12.8 3.28172 12.6736 2.97649 12.4485 2.75145C12.2235 2.5264 11.9183 2.39998 11.6 2.39998H10.332C10.2493 2.16591 10.0959 1.96328 9.8932 1.82C9.69046 1.67672 9.44827 1.59985 9.20001 1.59998H6.80001ZM6.40001 2.79998C6.40001 2.69389 6.44215 2.59215 6.51717 2.51713C6.59218 2.44212 6.69393 2.39998 6.80001 2.39998H9.20001C9.3061 2.39998 9.40784 2.44212 9.48286 2.51713C9.55787 2.59215 9.60001 2.69389 9.60001 2.79998C9.60001 2.90606 9.55787 3.0078 9.48286 3.08282C9.40784 3.15783 9.3061 3.19998 9.20001 3.19998H6.80001C6.69393 3.19998 6.59218 3.15783 6.51717 3.08282C6.44215 3.0078 6.40001 2.90606 6.40001 2.79998ZM10.2832 7.88318L7.48321 10.6832C7.44606 10.7204 7.40191 10.75 7.35332 10.7701C7.30472 10.7903 7.25263 10.8007 7.20001 10.8007C7.1474 10.8007 7.0953 10.7903 7.04671 10.7701C6.99811 10.75 6.95397 10.7204 6.91681 10.6832L5.71681 9.48318C5.67962 9.44599 5.65012 9.40183 5.62999 9.35324C5.60987 9.30465 5.59951 9.25257 5.59951 9.19998C5.59951 9.14738 5.60987 9.0953 5.62999 9.04671C5.65012 8.99812 5.67962 8.95397 5.71681 8.91678C5.79192 8.84167 5.89379 8.79947 6.00001 8.79947C6.05261 8.79947 6.10469 8.80983 6.15328 8.82996C6.20187 8.85008 6.24602 8.87959 6.28321 8.91678L7.20001 9.83438L9.71681 7.31678C9.79192 7.24167 9.89379 7.19947 10 7.19947C10.1062 7.19947 10.2081 7.24167 10.2832 7.31678C10.3583 7.39188 10.4005 7.49376 10.4005 7.59998C10.4005 7.7062 10.3583 7.80807 10.2832 7.88318V7.88318Z" fill="#738391"/>
</svg>
